<svg width="24" height="12" viewBox="0 0 24 12" fill="none" xmlns="http://www.w3.org/2000/svg">
<path d="M23.7888 5.57597L17.34 0.199966C17.2047 0.0872494 17.0213 0.0239258 16.83 0.0239258C16.6387 0.0239258 16.4553 0.0872494 16.32 0.199966C16.1847 0.312683 16.1087 0.465561 16.1087 0.624966C16.1087 0.784372 16.1847 0.937249 16.32 1.04997L21.5424 5.39997H0.72C0.529044 5.39997 0.345909 5.46318 0.210883 5.5757C0.0758569 5.68822 0 5.84084 0 5.99997C0 6.1591 0.0758569 6.31171 0.210883 6.42423C0.345909 6.53675 0.529044 6.59997 0.72 6.59997H21.5424L16.32 10.95C16.1847 11.0627 16.1087 11.2156 16.1087 11.375C16.1087 11.5344 16.1847 11.6872 16.32 11.8C16.4553 11.9127 16.6387 11.976 16.83 11.976C17.0213 11.976 17.2047 11.9127 17.34 11.8L23.7888 6.42397C23.9236 6.31147 23.9994 6.15897 23.9994 5.99997C23.9994 5.84097 23.9236 5.68847 23.7888 5.57597Z" fill="white"/>
</svg>
